<svg xmlns="http://www.w3.org/2000/svg" width="174" height="174" viewBox="0 0 174 174">
  <path id="Kaspa_logo_dark_big" d="M87,174a86.595,86.595,0,0,1-48.643-14.858A87.253,87.253,0,0,1,6.837,120.864a86.886,86.886,0,0,1,8.021-82.507A87.253,87.253,0,0,1,53.136,6.837a86.885,86.885,0,0,1,82.507,8.021,87.254,87.254,0,0,1,31.52,38.278,86.885,86.885,0,0,1-8.021,82.507,87.254,87.254,0,0,1-38.277,31.52A86.454,86.454,0,0,1,87,174Zm9.04-80.816V133h14V41h-14V73.472L62.619,47.362,54,58.394,85.916,83.328,51,110.607,59.62,121.64l36.42-28.455Z" transform="translate(0 0)" fill="#303030"/>
</svg>
